# xmcd
#
# Track frame offsets: 
#        150
#        16004
#        26641
#        39795
#        53019
#        61987
#        79440
#        102195
#        118179
#        123641
#        137134
#        142829
#        157530
#        164305
#        184438
#        191224
#        204326
#        212079
#        224944
#        240591
#        253818
#        265450
#        276186
#        283712
#        294089
#        304235
#        316683
#        330131
#
# Disc length: 4567 seconds
#
# Revision: 0
# Processed by: cddbd v1.5.2PL0 Copyright (c) Steve Scherf et al.
# Submitted via: ExactAudioCopy v0.99pb4
#
DISCID=9c11d51c
DTITLE=Gordon Smith - The Complete Blue Horizon Sessions
DYEAR=2008
DGENRE=Blues
TTITLE0=Diving Duck Blues
TTITLE1=Highway 51
TTITLE2=One Dime Blues
TTITLE3=Having a Good Time
TTITLE4=Instrumental No. 2
TTITLE5=Walking Blues
TTITLE6=Rolling and Tumbling
TTITLE7=I Been Down So Long
TTITLE8=Instrumental No. 4
TTITLE9=Pearlie Blues
TTITLE10=The Woman Down the Hall
TTITLE11=Big Road Blues
TTITLE12=Instrumental No. 3
TTITLE13=Worried Life Blues
TTITLE14=Nobody's Fault But Mine
TTITLE15=One Dime Blues (Take 1)
TTITLE16=Instrumental No. 2
TTITLE17=Walking Blues (Alt)
TTITLE18=Rolling and Tumbling (Alt)
TTITLE19=Walking Blues (Electric)
TTITLE20=Pearlie Blues (Alt)
TTITLE21=I'm So Glad (Take 1)
TTITLE22=Instrumental No. 1
TTITLE23=When You Got a Good Friend
TTITLE24=I'm So Glad (Take 2)
TTITLE25=Too Long
TTITLE26=Funk Pedal
TTITLE27=I'm Sitting on Top of the World
EXTD=
EXTT0=
EXTT1=
EXTT2=
EXTT3=
EXTT4=
EXTT5=
EXTT6=
EXTT7=
EXTT8=
EXTT9=
EXTT10=
EXTT11=
EXTT12=
EXTT13=
EXTT14=
EXTT15=
EXTT16=
EXTT17=
EXTT18=
EXTT19=
EXTT20=
EXTT21=
EXTT22=
EXTT23=
EXTT24=
EXTT25=
EXTT26=
EXTT27=
PLAYORDER=
